# xmcd
#
# Track frame offsets: 
#        150
#        8139
#        21351
#        28169
#        40122
#        56220
#        68419
#        82794
#        95442
#        103785
#        122798
#        137060
#        157371
#        172210
#        189125
#        198674
#        208179
#        217594
#        223421
#        242907
#        259261
#        281129
#        304929
#        324888
#
# Disc length: 4570 seconds
#
# Revision: 0
# Processed by: cddbd v1.5.2PL0 Copyright (c) Steve Scherf et al.
# Submitted via: ExactAudioCopy v1.1
#
DISCID=6911d818
DTITLE=Jacek Kaczmarski - Złota kolekcja
DYEAR=2005
DGENRE=Ballad
TTITLE0=Wiatr
TTITLE1=Samobójstwo Jesienina
TTITLE2=Przyjaciele
TTITLE3=Artyści
TTITLE4=Kara Barabasza
TTITLE5=Antylitania na czasy przejściowe
TTITLE6=Starość Owidiusza
TTITLE7=Ambasadorowie
TTITLE8=Martwa natura
TTITLE9=Portret zbiorowy we wnętrzu – Dom Opieki
TTITLE10=Marcin Luter
TTITLE11=Katyń
TTITLE12=Barykada
TTITLE13=Jałta
TTITLE14=Wyschnięte strumienie
TTITLE15=Krzyk
TTITLE16=Autoportret z psem
TTITLE17=Ogłoszenie w kosmos
TTITLE18=Śniadanie z bogiem
TTITLE19=Sąd nad Goyą
TTITLE20=Przepowiednia Jana Chrzciciela
TTITLE21=Jan Kochanowski
TTITLE22=Bob Dylan
TTITLE23=Ilu nas w ciszy
EXTD=
EXTT0=
EXTT1=
EXTT2=
EXTT3=
EXTT4=
EXTT5=
EXTT6=
EXTT7=
EXTT8=
EXTT9=
EXTT10=
EXTT11=
EXTT12=
EXTT13=
EXTT14=
EXTT15=
EXTT16=
EXTT17=
EXTT18=
EXTT19=
EXTT20=
EXTT21=
EXTT22=
EXTT23=
PLAYORDER=
